<?xml version="1.0" encoding="utf-8"?>
<!-- Generator: Adobe Illustrator 16.0.4, SVG Export Plug-In . SVG Version: 6.00 Build 0)  -->
<!DOCTYPE svg PUBLIC "-//W3C//DTD SVG 1.1//EN" "http://www.w3.org/Graphics/SVG/1.1/DTD/svg11.dtd">
<svg version="1.1" id="Layer_1" xmlns="http://www.w3.org/2000/svg" xmlns:xlink="http://www.w3.org/1999/xlink" x="0px" y="0px"
	 width="288px" height="35px" viewBox="0 0 288 35" enable-background="new 0 0 288 35" xml:space="preserve">
<g>
	<g>
		<g>
			<path fill="#0F7DCC" d="M53.184,5.46h10.771c2.744,0,4.906,0.754,6.278,2.126c1.063,1.063,1.612,2.367,1.612,3.979v0.069
				c0,2.881-1.646,4.425-3.43,5.351c2.812,0.96,4.768,2.573,4.768,5.832v0.068c0,4.288-3.533,6.586-8.884,6.586H53.184V5.46z
				 M67.625,12.252c0-1.887-1.509-3.053-4.219-3.053h-6.072v6.38h5.763c2.71,0,4.528-1.063,4.528-3.258V12.252z M64.024,19.146
				h-6.689v6.587h6.998c2.882,0,4.631-1.132,4.631-3.294v-0.068C68.963,20.347,67.352,19.146,64.024,19.146z"/>
		</g>
		<g>
			<path fill="#0F7DCC" d="M75.755,11.36h4.151v4.082c1.132-2.71,3.225-4.562,6.415-4.425v4.391h-0.24
				c-3.636,0-6.174,2.367-6.174,7.169v6.895h-4.151V11.36z"/>
		</g>
		<g>
			<path fill="#0F7DCC" d="M106.045,11.36h4.253l3.636,12.418l4.014-12.487h3.567l4.014,12.487l3.705-12.418h4.186l-5.935,18.248
				h-3.739l-4.048-12.382l-4.082,12.382h-3.705L106.045,11.36z"/>
		</g>
		<g>
			<path fill="#0F7DCC" d="M133.384,27.105l1.853-2.813c1.989,1.475,4.082,2.23,5.935,2.23c1.784,0,2.812-0.756,2.812-1.956v-0.068
				c0-1.406-1.921-1.887-4.048-2.538c-2.675-0.755-5.66-1.853-5.66-5.317v-0.069c0-3.43,2.847-5.523,6.449-5.523
				c2.264,0,4.734,0.79,6.655,2.059l-1.647,2.95c-1.749-1.063-3.601-1.714-5.11-1.714c-1.612,0-2.539,0.754-2.539,1.783v0.069
				c0,1.337,1.955,1.886,4.083,2.573c2.641,0.823,5.625,2.024,5.625,5.282v0.069c0,3.808-2.95,5.693-6.723,5.693
				C138.495,29.814,135.648,28.889,133.384,27.105z"/>
		</g>
		<g>
			<path fill="#0F7DCC" d="M149.335,20.484v-0.068c0-5.18,3.67-9.434,8.851-9.434c5.763,0,8.678,4.528,8.678,9.742
				c0,0.378-0.034,0.755-0.068,1.166h-13.31c0.445,2.95,2.538,4.597,5.214,4.597c2.023,0,3.464-0.754,4.906-2.161l2.435,2.161
				c-1.715,2.059-4.082,3.396-7.409,3.396C153.382,29.884,149.335,26.076,149.335,20.484z M162.747,19.146
				c-0.274-2.676-1.853-4.768-4.597-4.768c-2.538,0-4.322,1.955-4.699,4.768H162.747z"/>
		</g>
		<g>
			<path fill="#0F7DCC" d="M179.898,15.408V14.79c-0.221-0.778-0.342-1.653-0.342-2.641V12.08c0-0.364,0.022-0.721,0.062-1.07
				c-3.033-0.02-5.037,1.801-6.136,4.432V11.36h-4.15v18.111h4.15v-6.895c0-4.802,2.539-7.169,6.175-7.169H179.898z"/>
		</g>
		<g>
			<path fill="#0F7DCC" d="M86.595,20.519V20.45c0-5.18,4.116-9.468,9.673-9.468s9.639,4.22,9.639,9.399v0.068
				c0,5.146-4.116,9.434-9.708,9.434C90.677,29.884,86.595,25.665,86.595,20.519z M101.757,20.519V20.45
				c0-3.19-2.298-5.832-5.557-5.832c-3.328,0-5.454,2.607-5.454,5.763v0.068c0,3.156,2.298,5.797,5.522,5.797
				C99.63,26.247,101.757,23.641,101.757,20.519z"/>
		</g>
	</g>
	<g>
		<g>
			<path fill="#8BCAF1" d="M227.613,24.258v-0.068c0-3.91,3.054-5.832,7.479-5.832c2.023,0,3.465,0.31,4.871,0.755v-0.445
				c0-2.573-1.578-3.945-4.494-3.945c-2.023,0-3.533,0.446-5.18,1.132l-1.098-3.259c1.99-0.892,3.945-1.475,6.826-1.475
				c2.71,0,4.734,0.721,6.004,2.024c1.337,1.303,1.955,3.224,1.955,5.592v10.736h-4.048v-2.264c-1.235,1.475-3.122,2.642-5.9,2.642
				C230.632,29.85,227.613,27.894,227.613,24.258z M240.031,22.954V21.72c-1.063-0.411-2.47-0.721-4.116-0.721
				c-2.676,0-4.254,1.132-4.254,3.019v0.069c0,1.749,1.544,2.743,3.533,2.743C237.938,26.83,240.031,25.252,240.031,22.954z"/>
		</g>
		<g>
			<path fill="#8BCAF1" d="M245.863,11.36h4.15v4.082c1.133-2.71,3.226-4.562,6.415-4.425v4.391h-0.24
				c-3.636,0-6.175,2.367-6.175,7.169v6.895h-4.15V11.36z"/>
		</g>
		<g>
			<path fill="#8BCAF1" d="M258.315,11.36h4.15v2.744c1.166-1.612,2.744-3.122,5.522-3.122c2.607,0,4.46,1.27,5.421,3.19
				c1.44-1.921,3.36-3.19,6.105-3.19c3.945,0,6.346,2.504,6.346,6.929v11.56h-4.15v-10.29c0-2.882-1.338-4.426-3.67-4.426
				c-2.264,0-3.877,1.578-3.877,4.494v10.222h-4.15V19.146c0-2.812-1.372-4.391-3.67-4.391c-2.299,0-3.877,1.715-3.877,4.494v10.222
				h-4.15V11.36z"/>
		</g>
		<g>
			<path fill="#8BCAF1" d="M180.652,25.973l2.538-3.019c2.299,1.99,4.631,3.122,7.581,3.122c2.607,0,4.254-1.235,4.254-3.019v-0.069
				c0-1.715-0.961-2.642-5.42-3.67c-5.111-1.235-7.992-2.745-7.992-7.169V12.08c0-4.116,3.43-6.964,8.198-6.964
				c3.499,0,6.278,1.063,8.713,3.019l-2.264,3.19c-2.162-1.612-4.322-2.47-6.519-2.47c-2.47,0-3.91,1.269-3.91,2.847v0.068
				c0,1.853,1.098,2.675,5.729,3.773c5.076,1.235,7.684,3.053,7.684,7.032v0.068c0,4.493-3.533,7.169-8.575,7.169
				C186.999,29.814,183.534,28.546,180.652,25.973z"/>
		</g>
		<g>
			<path fill="#8BCAF1" d="M200.171,11.36h4.253l3.637,12.418l4.014-12.487h3.568l4.013,12.487l3.705-12.418h4.186l-5.935,18.248
				h-3.74l-4.048-12.382l-4.081,12.382h-3.705L200.171,11.36z"/>
		</g>
	</g>
	<g>
		<path fill="#0F7DCC" d="M45.284,0.209H3.457c-0.728,0-1.317,0.589-1.317,1.317v31.947c0,0.728,0.59,1.317,1.317,1.317h41.828
			c0.728,0,1.317-0.59,1.317-1.317V1.527C46.601,0.799,46.012,0.209,45.284,0.209z M10.373,1.856c0.91,0,1.647,0.737,1.647,1.646
			c0,0.909-0.738,1.646-1.647,1.646c-0.909,0-1.646-0.737-1.646-1.646C8.726,2.593,9.464,1.856,10.373,1.856z M5.433,1.856
			c0.91,0,1.647,0.737,1.647,1.646c0,0.909-0.737,1.646-1.647,1.646c-0.909,0-1.646-0.737-1.646-1.646
			C3.786,2.593,4.523,1.856,5.433,1.856z M44.955,6.797v25.557c0,0.437-0.354,0.791-0.79,0.791H4.576
			c-0.437,0-0.79-0.354-0.79-0.791V6.797 M44.955,4.359c0,0.437-0.354,0.791-0.79,0.791H14.457c-0.436,0-0.79-0.354-0.79-0.791
			V2.646c0-0.437,0.354-0.79,0.79-0.79h29.708c0.436,0,0.79,0.354,0.79,0.79V4.359z"/>
		<g>
			<path fill="#8BCAF1" d="M4.576,33.145h0.072L3.786,31.65v0.703C3.786,32.79,4.14,33.145,4.576,33.145z"/>
			<path fill="#8BCAF1" d="M39.299,30.431l1.59-2.755h3.181l0.885,1.532v-4.521l-0.885,1.532h-3.181l-1.59-2.755l1.59-2.755h3.181
				l0.885,1.532v-4.523l-0.885,1.533h-3.181l-1.59-2.755l1.59-2.755h3.181l0.885,1.533V10.75l-0.885,1.533h-3.181l-1.59-2.755
				l1.577-2.731h-1.687L38.032,8.8h-3.181l-1.156-2.003h-1.685l1.577,2.731l-1.59,2.755h-3.181l-1.591-2.755l1.577-2.731h-1.691
				l-1.154,1.999h-3.181l-1.154-1.999h-1.685l1.574,2.728l-1.59,2.755h-3.181l-1.59-2.755l1.575-2.728H15.04l-1.154,1.999h-3.181
				L9.551,6.797H7.867l1.575,2.728l-1.59,2.755H4.67l-0.884-1.531v4.521l0.884-1.531h3.181l1.59,2.755l-1.59,2.754H4.67
				l-0.884-1.531v4.521l0.884-1.531h3.181l1.59,2.755l-1.59,2.755H4.67l-0.884-1.531v4.521l0.884-1.531h3.181l1.59,2.754
				l-1.569,2.718h1.685l1.148-1.988h3.181l1.148,1.988h1.687l-1.569-2.718l1.59-2.754h3.181l1.59,2.754l-1.568,2.718h1.685
				l1.148-1.988h3.181l1.148,1.988h1.687l-1.567-2.714l1.591-2.755h3.181l1.59,2.755l-1.566,2.714h1.685l1.146-1.985h3.181
				l1.146,1.985h1.687L39.299,30.431z M39.623,19.979l-1.591,2.755h-3.181l-1.59-2.755l1.59-2.754h3.181L39.623,19.979z
				 M34.852,10.257h3.181l1.591,2.755l-1.591,2.754h-3.181l-1.59-2.754L34.852,10.257z M31.998,13.741l1.59,2.755l-1.59,2.755
				h-3.181l-1.591-2.755l1.591-2.755H31.998z M27.549,19.977l-1.59,2.754h-3.181l-1.59-2.754l1.59-2.755h3.181L27.549,19.977z
				 M22.778,10.253h3.181l1.59,2.755l-1.59,2.755h-3.181l-1.59-2.755L22.778,10.253z M19.924,13.738l1.59,2.755l-1.59,2.754h-3.181
				l-1.59-2.754l1.59-2.755H19.924z M9.115,13.008l1.59-2.755h3.181l1.59,2.755l-1.59,2.755h-3.181L9.115,13.008z M9.115,19.977
				l1.59-2.755h3.181l1.59,2.755l-1.59,2.754h-3.181L9.115,19.977z M13.886,29.698h-3.181l-1.59-2.755l1.59-2.755h3.181l1.59,2.755
				L13.886,29.698z M16.743,26.215l-1.59-2.755l1.59-2.755h3.181l1.59,2.755l-1.59,2.755H16.743z M25.958,29.698h-3.181l-1.59-2.755
				l1.59-2.755h3.181l1.59,2.755L25.958,29.698z M28.817,26.219l-1.591-2.755l1.591-2.755h3.181l1.59,2.755l-1.59,2.755H28.817z
				 M34.852,29.702l-1.59-2.755l1.59-2.755h3.181l1.591,2.755l-1.591,2.755H34.852z"/>
			<path fill="#8BCAF1" d="M44.955,31.653l-0.861,1.491h0.071c0.436,0,0.79-0.354,0.79-0.791V31.653z"/>
			<polygon fill="#8BCAF1" points="44.955,8.306 44.955,6.797 44.083,6.797 			"/>
			<polygon fill="#8BCAF1" points="3.786,6.797 3.786,8.301 4.654,6.797 			"/>
		</g>
	</g>
</g>
</svg>
