<?xml version="1.0" encoding="utf-8"?>
<!-- Generator: Adobe Illustrator 16.0.4, SVG Export Plug-In . SVG Version: 6.00 Build 0)  -->
<!DOCTYPE svg PUBLIC "-//W3C//DTD SVG 1.1//EN" "http://www.w3.org/Graphics/SVG/1.1/DTD/svg11.dtd">
<svg version="1.1" id="Layer_1" xmlns="http://www.w3.org/2000/svg" xmlns:xlink="http://www.w3.org/1999/xlink" x="0px" y="0px"
	 width="19.9px" height="17.246px" viewBox="0 0 19.9 17.246" enable-background="new 0 0 19.9 17.246" xml:space="preserve">
<path opacity="0.2" fill="#0D81D1" d="M0,9.831l3.93,2.27v4.543l-1.044,0.603h4.17l-1.043-0.603v-4.543l3.935-2.272l3.935,2.272
	v4.543l-1.045,0.603h4.172l-1.044-0.603v-4.543L19.9,9.828V1.666L17.014,0h-4.171L9.953,1.669L7.062,0H2.894L0,1.67V9.831z
	 M10.994,3.474l3.936-2.272l3.935,2.272v4.543l-3.935,2.271l-3.936-2.271V3.474z M4.976,1.202l3.935,2.272v4.543l-3.935,2.271
	L1.042,8.018V3.474L4.976,1.202z"/>
</svg>
