<?xml version="1.0" encoding="utf-8"?>
<!-- Generator: Adobe Illustrator 15.0.0, SVG Export Plug-In . SVG Version: 6.00 Build 0)  -->
<!DOCTYPE svg PUBLIC "-//W3C//DTD SVG 1.1//EN" "http://www.w3.org/Graphics/SVG/1.1/DTD/svg11.dtd">
<svg version="1.1" id="Layer_1" xmlns="http://www.w3.org/2000/svg" xmlns:xlink="http://www.w3.org/1999/xlink" x="0px" y="0px"
	 width="14.98px" height="12.01px" viewBox="0 0 14.98 12.01" enable-background="new 0 0 14.98 12.01" xml:space="preserve">
<path fill="#DA1F27" d="M13.274,9.013l-3.001-3.001l3.001-3c0.285-0.285,0.285-0.748,0-1.033l-1.751-1.751
	c-0.285-0.285-0.748-0.285-1.032,0l-3.001,3l-3-3c-0.285-0.285-0.748-0.285-1.033,0L1.706,1.979c-0.285,0.285-0.285,0.748,0,1.033
	l3,3l-3,3.001c-0.285,0.285-0.285,0.747,0,1.032l1.751,1.751c0.285,0.285,0.748,0.285,1.033,0l3-3.001l3.001,3.001
	c0.285,0.285,0.747,0.285,1.032,0l1.751-1.751C13.56,9.76,13.56,9.298,13.274,9.013z"/>
</svg>
