<?xml version="1.0" encoding="utf-8"?>
<!-- Generator: Adobe Illustrator 16.0.4, SVG Export Plug-In . SVG Version: 6.00 Build 0)  -->
<!DOCTYPE svg PUBLIC "-//W3C//DTD SVG 1.1//EN" "http://www.w3.org/Graphics/SVG/1.1/DTD/svg11.dtd">
<svg version="1.1" id="Layer_1" xmlns="http://www.w3.org/2000/svg" xmlns:xlink="http://www.w3.org/1999/xlink" x="0px" y="0px"
	 width="33px" height="26px" viewBox="0 0 33 26" enable-background="new 0 0 33 26" xml:space="preserve">
<path fill-rule="evenodd" clip-rule="evenodd" fill="#0F7CCC" d="M2.538,20.8h27.923C31.863,20.8,33,21.964,33,23.4
	c0,1.436-1.137,2.6-2.539,2.6H2.538C1.137,26,0,24.836,0,23.4C0,21.964,1.137,20.8,2.538,20.8z M2.538,10.4h27.923
	C31.863,10.4,33,11.564,33,13c0,1.437-1.137,2.6-2.539,2.6H2.538C1.137,15.6,0,14.437,0,13C0,11.564,1.137,10.4,2.538,10.4z
	 M2.538,0h27.923C31.863,0,33,1.164,33,2.6s-1.137,2.6-2.539,2.6H2.538C1.137,5.2,0,4.036,0,2.6S1.137,0,2.538,0z"/>
</svg>
