<?xml version="1.0" encoding="utf-8"?>
<!-- Generator: Adobe Illustrator 16.0.4, SVG Export Plug-In . SVG Version: 6.00 Build 0)  -->
<!DOCTYPE svg PUBLIC "-//W3C//DTD SVG 1.1//EN" "http://www.w3.org/Graphics/SVG/1.1/DTD/svg11.dtd">
<svg version="1.1" id="Layer_1" xmlns="http://www.w3.org/2000/svg" xmlns:xlink="http://www.w3.org/1999/xlink" x="0px" y="0px"
	 width="198px" height="41px" viewBox="0 0 198 41" enable-background="new 0 0 198 41" xml:space="preserve">
<g>
	<g>
		<path fill="#FFFFFF" d="M181.618,29.312c1.387-1.645,2.735-3.713,3.968-6.096c1.251-2.419,2.369-5.128,3.277-7.996
			c0.913-2.885,1.454-5.436,1.668-7.606c0.212-2.143,0.103-3.888-0.274-5.221c-0.084-0.3-0.184-0.576-0.293-0.833l6.106,0
			c0.758,1.717,1.142,3.82,1.149,6.183c0.01,2.777-0.499,5.851-1.493,8.994c-1.092,3.448-2.627,6.632-4.454,9.394
			c-1.282,1.938-2.687,3.634-4.161,5.062h-7.31C180.408,30.65,181.016,30.025,181.618,29.312z"/>
		<path fill="#FFFFFF" d="M173.036,22.997c0.202-2.06,0.682-4.353,1.479-6.872c0.732-2.309,1.65-4.456,2.705-6.408
			c1.074-1.988,2.306-3.81,3.642-5.414c0.832-0.997,1.712-1.916,2.623-2.745h3.302c-1.127,0.963-2.234,2.205-3.29,3.702
			c-1.073,1.522-2.106,3.317-3.07,5.367c-0.951,2.025-1.846,4.32-2.655,6.878c-0.738,2.333-1.233,4.39-1.518,6.185
			c-0.285,1.813-0.36,3.374-0.248,4.68c0.096,1.125,0.331,2.066,0.688,2.821h-2.63c-0.353-0.78-0.629-1.635-0.817-2.559
			C172.908,26.983,172.831,25.096,173.036,22.997z"/>
	</g>
	<g>
		<g>
			<path fill="#FFFFFF" d="M0.78,29.092c0-1.471,1.175-2.675,2.611-2.675s2.611,1.204,2.611,2.675c0,1.472-1.175,2.676-2.611,2.676
				S0.78,30.563,0.78,29.092z"/>
		</g>
	</g>
	<g>
		<path fill="#FFFFFF" d="M22.951,26.455c-1.089,1.788-2.401,3.137-3.934,4.042c-1.532,0.906-2.939,1.359-4.222,1.359
			c-1.795,0-3.408-0.774-4.838-2.325c-1.429-1.551-2.144-3.905-2.144-7.058c0-2.487,0.474-4.708,1.424-6.664
			c0.949-1.955,2.221-3.5,3.812-4.635c1.592-1.134,3.562-1.702,5.911-1.702c0.68,0,1.704,0.07,3.074,0.211
			c0.205,0.026,0.511,0.058,0.921,0.097h3.588V24.95c0,2.592,0.275,4.695,0.827,6.31h-3.73
			C23.351,30.087,23.122,28.485,22.951,26.455z M22.965,22.179v-9.224c-1.271-0.333-2.453-0.501-3.544-0.501
			c-2.208,0-4.048,0.854-5.519,2.562c-1.47,1.707-2.205,4.03-2.205,6.969c0,2.132,0.4,3.739,1.203,4.823
			c0.803,1.086,1.718,1.627,2.746,1.627c1.116,0,2.35-0.563,3.698-1.693C20.692,25.611,21.899,24.091,22.965,22.179z"/>
		<path fill="#FFFFFF" d="M33.047,14.611c1.103-1.795,2.417-3.149,3.942-4.059c1.526-0.911,2.93-1.366,4.212-1.366
			c1.795,0,3.41,0.776,4.846,2.327c1.436,1.551,2.153,3.903,2.153,7.057c0,2.487-0.478,4.708-1.433,6.664s-2.227,3.499-3.817,4.634
			c-1.59,1.136-3.558,1.701-5.904,1.701c-0.667,0-1.692-0.071-3.077-0.211c-0.205-0.026-0.513-0.057-0.923-0.098v8.348h-3.576V9.782
			h3.576V14.611z M33.047,18.865v9.223c1.295,0.334,2.487,0.502,3.578,0.502c2.166,0,3.99-0.852,5.471-2.553
			c1.481-1.701,2.221-4.027,2.221-6.979c0-2.144-0.404-3.755-1.211-4.833c-0.808-1.078-1.725-1.617-2.75-1.617
			c-1.116,0-2.343,0.564-3.683,1.694C35.333,15.433,34.125,16.953,33.047,18.865z"/>
		<path fill="#FFFFFF" d="M53.724,14.611c1.102-1.795,2.417-3.149,3.943-4.059c1.525-0.911,2.929-1.366,4.21-1.366
			c1.795,0,3.411,0.776,4.846,2.327c1.436,1.551,2.155,3.903,2.155,7.057c0,2.487-0.479,4.708-1.434,6.664s-2.228,3.499-3.817,4.634
			c-1.589,1.136-3.558,1.701-5.903,1.701c-0.667,0-1.692-0.071-3.077-0.211c-0.205-0.026-0.513-0.057-0.923-0.098v8.348h-3.577
			V9.782h3.577V14.611z M53.724,18.865v9.223c1.295,0.334,2.487,0.502,3.577,0.502c2.167,0,3.99-0.852,5.471-2.553
			c1.48-1.701,2.221-4.027,2.221-6.979c0-2.144-0.404-3.755-1.211-4.833c-0.808-1.078-1.725-1.617-2.75-1.617
			c-1.115,0-2.343,0.564-3.683,1.694C56.009,15.433,54.801,16.953,53.724,18.865z"/>
		<path fill="#FFFFFF" d="M88.477,29.832c-2.859,1.352-5.563,2.024-8.115,2.024c-1.936,0-3.667-0.479-5.192-1.44
			c-1.526-0.959-2.747-2.334-3.663-4.121c-0.917-1.786-1.375-3.698-1.375-5.735c0-1.96,0.436-3.843,1.308-5.649
			c0.872-1.807,2.089-3.212,3.653-4.217c1.564-1.005,3.308-1.508,5.231-1.508c2.551,0,4.599,0.908,6.144,2.726
			s2.318,4.622,2.318,8.409v0.768H73.977c0,1.492,0.311,2.854,0.933,4.086c0.622,1.234,1.439,2.16,2.451,2.777
			c1.013,0.617,2.167,0.926,3.461,0.926c2.308,0,4.859-0.772,7.654-2.313V29.832z M74.188,18.416H84.9v-0.518
			c0-1.75-0.429-3.143-1.289-4.179c-0.859-1.035-2.007-1.553-3.442-1.553c-1.449,0-2.702,0.527-3.76,1.582
			S74.612,16.358,74.188,18.416z"/>
		<path fill="#FFFFFF" d="M91.174,31.26V9.782h3.577v4.692c1.025-1.653,2.262-2.948,3.711-3.885
			c1.449-0.936,2.897-1.403,4.346-1.403c1.269,0,2.424,0.336,3.462,1.009c1.038,0.673,1.767,1.554,2.184,2.644
			c0.416,1.09,0.625,3.23,0.625,6.423V31.26H105.5V18.82c0-2.064-0.099-3.426-0.298-4.087c-0.198-0.66-0.564-1.201-1.097-1.625
			c-0.531-0.423-1.111-0.634-1.739-0.634c-1.257,0-2.606,0.596-4.048,1.788c-1.442,1.193-2.631,2.687-3.567,4.481V31.26H91.174z"/>
		<path fill="#FFFFFF" d="M126.196,26.433c-1.092,1.795-2.404,3.149-3.939,4.06c-1.533,0.911-2.941,1.364-4.225,1.364
			c-1.798,0-3.412-0.774-4.843-2.325c-1.433-1.551-2.147-3.905-2.147-7.058c0-2.487,0.476-4.708,1.425-6.664
			c0.949-1.955,2.221-3.5,3.812-4.635c1.592-1.134,3.563-1.702,5.912-1.702c0.68,0,1.706,0.07,3.081,0.211
			c0.205,0.026,0.513,0.058,0.925,0.097v-8.39h3.575V31.26h-3.575V26.433z M126.196,22.179v-9.224
			c-1.273-0.333-2.454-0.501-3.545-0.501c-2.209,0-4.049,0.854-5.52,2.562c-1.471,1.707-2.206,4.03-2.206,6.969
			c0,2.132,0.401,3.739,1.205,4.823c0.802,1.086,1.718,1.627,2.744,1.627c1.117,0,2.351-0.563,3.699-1.693
			C123.922,25.611,125.13,24.091,126.196,22.179z"/>
		<path fill="#FFFFFF" d="M140.931,31.26V4.705h-8.941V1.417h21.769v3.288h-8.943V31.26H140.931z"/>
		<path fill="#FFFFFF" d="M159.506,31.856c-3.073,0-5.532-1.073-7.377-3.221s-2.767-4.855-2.767-8.124
			c0-3.269,0.922-5.974,2.767-8.115c1.845-2.141,4.304-3.211,7.377-3.211c3.061,0,5.515,1.07,7.358,3.211
			c1.845,2.142,2.767,4.846,2.767,8.115c0,3.269-0.922,5.977-2.767,8.124C165.021,30.783,162.566,31.856,159.506,31.856z
			 M159.506,28.878c1.908,0,3.424-0.744,4.55-2.231c1.128-1.487,1.691-3.532,1.691-6.135c0-2.589-0.563-4.628-1.691-6.115
			c-1.126-1.487-2.642-2.23-4.55-2.23c-1.92,0-3.442,0.744-4.57,2.23c-1.126,1.487-1.689,3.526-1.689,6.115
			c0,2.603,0.563,4.647,1.689,6.135C156.063,28.134,157.586,28.878,159.506,28.878z"/>
	</g>
</g>
</svg>
