<?xml version="1.0" encoding="utf-8"?>
<!-- Generator: Adobe Illustrator 16.0.4, SVG Export Plug-In . SVG Version: 6.00 Build 0)  -->
<!DOCTYPE svg PUBLIC "-//W3C//DTD SVG 1.1//EN" "http://www.w3.org/Graphics/SVG/1.1/DTD/svg11.dtd">
<svg version="1.1" id="Layer_1" xmlns="http://www.w3.org/2000/svg" xmlns:xlink="http://www.w3.org/1999/xlink" x="0px" y="0px"
	 width="199px" height="156px" viewBox="0 0 199 156" enable-background="new 0 0 199 156" xml:space="preserve">
<path fill="#FFFFFF" d="M190.861,0H8.139c-3.18,0-5.755,2.576-5.755,5.754v139.561c0,3.179,2.575,5.754,5.754,5.754h182.723
	c3.18,0,5.754-2.575,5.754-5.754V5.754C196.615,2.576,194.041,0,190.861,0z M38.352,7.193c3.973,0,7.195,3.221,7.195,7.194
	c0,3.974-3.222,7.194-7.195,7.194c-3.972,0-7.192-3.22-7.192-7.194C31.16,10.414,34.38,7.193,38.352,7.193z M111.979,71.146
	l6.946-12.033h13.896l6.947,12.033L132.82,83.18h-13.896L111.979,71.146z M113.387,86.35l-6.947,12.033H92.543L85.596,86.35
	l6.947-12.035h13.896L113.387,86.35z M106.439,67.946H92.543l-6.947-12.034l6.947-12.033h13.896l6.945,12.033L106.439,67.946z
	 M87.021,71.131l-6.946,12.033H66.179l-6.948-12.033l6.948-12.035h13.897L87.021,71.131z M53.7,67.946H39.806l-6.949-12.034
	l6.949-12.033H53.7l6.948,12.033L53.7,67.946z M53.7,74.315l6.948,12.035L53.7,98.383H39.806L32.857,86.35l6.949-12.035H53.7z
	 M53.7,104.754l6.948,12.033L53.7,128.82H39.806l-6.949-12.033l6.949-12.033H53.7L53.7,104.754z M59.231,101.568l6.948-12.033
	h13.897l6.946,12.033l-6.946,12.033H66.179L59.231,101.568z M92.543,104.754h13.896l6.945,12.033l-6.945,12.033H92.543
	l-6.947-12.033L92.543,104.754z M111.979,101.584l6.946-12.033h13.896l6.947,12.033l-6.947,12.033h-13.896L111.979,101.584z
	 M145.288,104.77h13.896l6.947,12.033l-6.947,12.033h-13.896l-6.948-12.033L145.288,104.77z M145.288,98.398l-6.948-12.033
	l6.948-12.034h13.896l6.947,12.034l-6.947,12.033H145.288z M145.288,67.962l-6.948-12.034l6.948-12.034h13.896l6.947,12.034
	l-6.947,12.034H145.288z M159.184,37.525h-13.896l-5.054-8.751h24L159.184,37.525z M139.768,40.709l-6.947,12.034h-13.896
	l-6.946-12.034l6.89-11.935h14.01L139.768,40.709z M106.439,37.508H92.543l-5.042-8.733h23.979L106.439,37.508z M87.021,40.693
	l-6.946,12.034H66.179l-6.948-12.034l6.882-11.919h14.029L87.021,40.693z M53.7,37.508H39.806l-5.043-8.733h23.979L53.7,37.508z
	 M16.77,7.193c3.976,0,7.196,3.221,7.196,7.194c0,3.974-3.22,7.194-7.196,7.194c-3.972,0-7.192-3.22-7.192-7.194
	C9.578,10.414,12.798,7.193,16.77,7.193z M9.578,35.351l3.796-6.577h14.027l6.882,11.919l-6.948,12.034H13.44l-3.862-6.692V35.351z
	 M9.578,65.79l3.862-6.693h13.896l6.948,12.035l-6.948,12.033H13.44l-3.862-6.69V65.79z M9.578,96.225l3.862-6.688h13.896
	l6.948,12.032l-6.948,12.033H13.44l-3.862-6.69V96.225z M13.345,143.875l-3.767-6.527v-10.684l3.862-6.691h13.896l6.948,12.031
	l-6.853,11.871H13.345L13.345,143.875z M34.791,143.875l5.015-8.686H53.7l5.015,8.686H34.791z M66.084,143.875l-6.853-11.871
	l6.948-12.031h13.897l6.946,12.031l-6.852,11.871H66.084z M87.529,143.875l5.014-8.686h13.896l5.014,8.686H87.529z M118.82,143.875
	l-6.844-11.854l6.947-12.033h13.896l6.947,12.033l-6.845,11.854H118.82z M140.283,143.875l5.005-8.668h13.896l5.006,8.668H140.283z
	 M189.422,137.361l-3.762,6.514h-14.104l-6.844-11.854l6.946-12.033h13.896l3.865,6.693v10.68H189.422z M189.422,106.922
	l-3.865,6.695H171.66l-6.946-12.033l6.946-12.033h13.896l3.864,6.693L189.422,106.922L189.422,106.922z M189.422,76.486
	l-3.865,6.694H171.66l-6.946-12.033l6.946-12.033h13.896l3.864,6.693L189.422,76.486L189.422,76.486z M189.422,46.048l-3.865,6.695
	H171.66l-6.946-12.034l6.89-11.935h14.013l3.807,6.596L189.422,46.048L189.422,46.048z M189.422,18.127
	c0,1.907-1.544,3.453-3.449,3.453H56.192c-1.906,0-3.451-1.546-3.451-3.453v-7.481c0-1.907,1.545-3.453,3.451-3.453h129.779
	c1.906,0,3.45,1.546,3.45,3.453L189.422,18.127L189.422,18.127z"/>
</svg>
