<?xml version="1.0" encoding="utf-8"?>
<!-- Generator: Adobe Illustrator 15.0.0, SVG Export Plug-In . SVG Version: 6.00 Build 0)  -->
<!DOCTYPE svg PUBLIC "-//W3C//DTD SVG 1.1//EN" "http://www.w3.org/Graphics/SVG/1.1/DTD/svg11.dtd">
<svg version="1.1" id="Layer_1" xmlns="http://www.w3.org/2000/svg" xmlns:xlink="http://www.w3.org/1999/xlink" x="0px" y="0px"
	 width="15.999px" height="14.999px" viewBox="0 0 15.999 14.999" enable-background="new 0 0 15.999 14.999" xml:space="preserve">
<path fill="#A9A640" d="M13.834,14.999H2.166c-0.87,0-1.573-0.368-1.928-1.009s-0.311-1.457,0.125-2.241L6.196,1.233
	C6.631,0.449,7.289,0,8,0c0.711,0,1.368,0.449,1.803,1.233l5.834,10.515c0.436,0.784,0.48,1.602,0.125,2.242
	S14.703,14.999,13.834,14.999z M8,1.806c-0.019,0-0.149,0.058-0.3,0.331L1.865,12.652C1.713,12.925,1.73,13.07,1.74,13.088
	s0.122,0.105,0.425,0.105h11.668c0.303,0,0.416-0.088,0.425-0.105c0.01-0.018,0.026-0.163-0.124-0.436L8.3,2.136
	C8.148,1.863,8.019,1.806,8,1.806z"/>
<path fill="#A9A640" d="M8.916,12.604H7.083v-1.906h1.833V12.604z"/>
<path fill="#A9A640" d="M8.916,9.745H7.083V4.452h1.833V9.745z"/>
</svg>
