<?xml version="1.0" encoding="utf-8"?>
<!-- Generator: Adobe Illustrator 16.0.4, SVG Export Plug-In . SVG Version: 6.00 Build 0)  -->
<!DOCTYPE svg PUBLIC "-//W3C//DTD SVG 1.1//EN" "http://www.w3.org/Graphics/SVG/1.1/DTD/svg11.dtd">
<svg version="1.1" id="Layer_1" xmlns="http://www.w3.org/2000/svg" xmlns:xlink="http://www.w3.org/1999/xlink" x="0px" y="0px"
	 width="101px" height="99px" viewBox="0 0 101 99" enable-background="new 0 0 101 99" xml:space="preserve">
<g id="svg_x5F_paths">
	<g id="svgb" display="none">
		<path id="E_1_" display="inline" fill="#C90000" d="M100.319,51.793c0-24.729-20.047-44.776-44.775-44.776
			c-21.276,0-39.085,14.84-43.644,34.734c11.214-12.581,19.062-17.657,23.762-19.688C24.277,32.235,16.098,43.976,10.791,53.118
			c0.701,24.115,20.469,43.45,44.753,43.45c19.469,0,36.034-12.428,42.2-29.782H74.217c-3.48,5.881-10.183,9.864-17.882,9.864
			c-11.281,0-20.425-8.547-20.425-19.091h64.042C100.193,55.672,100.319,53.747,100.319,51.793z M35.811,45.315
			c0.358-10.248,9.276-18.453,20.234-18.453c10.957,0,19.876,8.205,20.234,18.453H35.811z"/>
		<path id="Ring_1_" display="inline" fill="#FFFFFF" d="M76.646,1.024c-16.679,3.264-30.25,11.449-40.984,21.039
			C23.129,33.261,14.468,46.372,9.262,55.81c-4.031,7.308-5.995,12.414-6.08,12.717c-13.678,48.901,33.192,23.095,33.192,23.095
			l11.092-11.236l-8.753-4.683l-7.368-6.234l3.173,19.833c0,0-16.596,10.677-24.503,2.565c-3.295-3.38-3.751-11.844,4.31-27.518
			c3.699-7.192,8.628-6.183,12.048-4.148l-1.748-4.129l7.622-21.248l21.016-16.629l16.397,3.464l9.47,8.314v7.39l1.507,9.415
			l11.83-11.985C112.737-4.82,78.478,0.666,76.646,1.024z M69.913,10.963c0,0,14.623-8.24,22.042-3.232
			c3.868,2.611,6.972,6.714,1.587,20.588C93.434,28.6,70.018,10.672,69.913,10.963z"/>
	</g>
	<path id="svg" fill="#FFFFFF" d="M100.319,51.793c0-7.877-2.036-15.277-5.607-21.708C109.934-4.366,78.401,0.68,76.646,1.024
		C69.965,2.331,63.784,4.43,58.083,7.09c-0.841-0.047-1.687-0.073-2.539-0.073c-21.276,0-39.085,14.84-43.644,34.734
		C23.114,29.17,30.962,24.094,35.662,22.062c-0.75,0.67-1.484,1.348-2.207,2.031c-0.24,0.227-0.472,0.457-0.709,0.686
		c-0.476,0.458-0.952,0.917-1.416,1.379c-0.276,0.275-0.545,0.553-0.817,0.83c-0.412,0.419-0.823,0.838-1.225,1.259
		c-0.286,0.3-0.564,0.6-0.845,0.9c-0.375,0.402-0.749,0.804-1.115,1.208c-0.285,0.314-0.564,0.627-0.844,0.942
		c-0.348,0.391-0.691,0.782-1.031,1.173c-0.281,0.325-0.561,0.65-0.836,0.976c-0.321,0.379-0.639,0.759-0.953,1.139
		c-0.278,0.336-0.555,0.671-0.828,1.007c-0.294,0.363-0.582,0.726-0.869,1.087c-0.278,0.351-0.557,0.702-0.829,1.052
		c-0.259,0.333-0.511,0.666-0.764,0.999c-0.286,0.376-0.574,0.752-0.853,1.126c-0.199,0.268-0.391,0.533-0.586,0.8
		c-1.769,2.414-3.386,4.781-4.846,7.056c-0.003,0.006-0.007,0.011-0.011,0.017c-0.384,0.599-0.755,1.189-1.119,1.774
		c-0.02,0.031-0.04,0.063-0.06,0.096c-0.364,0.588-0.715,1.164-1.058,1.735c-0.012,0.02-0.025,0.041-0.037,0.061
		c-0.921,1.537-1.775,3.019-2.544,4.413C5.23,63.117,3.267,68.224,3.182,68.526c-12.734,45.527,27.01,26.302,32.556,23.432
		c5.972,2.95,12.694,4.61,19.806,4.61c19.469,0,36.034-12.427,42.2-29.782H74.217c-3.48,5.881-10.183,9.865-17.882,9.865
		c-11.281,0-20.425-8.548-20.425-19.092h64.042C100.193,55.672,100.319,53.747,100.319,51.793z M91.955,7.731
		c3.855,2.603,6.948,6.689,1.637,20.453c-5.093-8.192-12.757-14.619-21.866-18.151C75.869,8.032,86.131,3.799,91.955,7.731z
		 M10.014,91.866c-3.14-3.221-3.696-11.065,3.234-25.358c3.497,10.055,10.476,18.48,19.497,23.828
		C28.259,92.805,16.349,98.364,10.014,91.866z M35.811,45.315c0.358-10.248,9.276-18.453,20.234-18.453
		c10.957,0,19.876,8.205,20.234,18.453H35.811z"/>
</g>
</svg>
